<svg width="25" height="25" viewBox="0 0 25 25" fill="none" xmlns="http://www.w3.org/2000/svg">
<g id="search-normal-1 1">
<path id="Vector" d="M12 22.1156C6.35 22.1156 1.75 17.5156 1.75 11.8656C1.75 6.2156 6.35 1.6156 12 1.6156C17.65 1.6156 22.25 6.2156 22.25 11.8656C22.25 17.5156 17.65 22.1156 12 22.1156ZM12 3.1156C7.17 3.1156 3.25 7.0456 3.25 11.8656C3.25 16.6856 7.17 20.6156 12 20.6156C16.83 20.6156 20.75 16.6856 20.75 11.8656C20.75 7.0456 16.83 3.1156 12 3.1156Z" fill="rgba(33, 38, 43, 0.5)" fillOpacity="0.5"/>
<path id="Vector_2" d="M22.5004 23.1155C22.3104 23.1155 22.1204 23.0455 21.9704 22.8955L19.9704 20.8955C19.6804 20.6055 19.6804 20.1255 19.9704 19.8355C20.2604 19.5455 20.7404 19.5455 21.0304 19.8355L23.0304 21.8355C23.3204 22.1255 23.3204 22.6055 23.0304 22.8955C22.8804 23.0455 22.6904 23.1155 22.5004 23.1155Z" fill="rgba(33, 38, 43, 0.5)" fillOpacity="0.5"/>
</g>
</svg>
